<svg preserveAspectRatio="none" overflow="visible" style="display: block;" width="114.237" height="114.237" viewBox="0 0 114.237 114.237" fill="none" xmlns="http://www.w3.org/2000/svg">
<g id="Frame" opacity="0.45">
<path id="Vector" d="M90.438 14.2797H23.7995C18.5418 14.2797 14.2797 18.5418 14.2797 23.7995V90.438C14.2797 95.6956 18.5418 99.9578 23.7995 99.9578H90.438C95.6956 99.9578 99.9578 95.6956 99.9578 90.438V23.7995C99.9578 18.5418 95.6956 14.2797 90.438 14.2797Z" stroke="black" stroke-width="1.86686" stroke-linecap="round" stroke-linejoin="round"/>
<path id="Vector_2" d="M40.4584 47.5975C44.4012 47.5975 47.5975 44.4012 47.5975 40.4584C47.5975 36.5155 44.4012 33.3193 40.4584 33.3193C36.5155 33.3193 33.3193 36.5155 33.3193 40.4584C33.3193 44.4012 36.5155 47.5975 40.4584 47.5975Z" stroke="black" stroke-width="1.86686" stroke-linecap="round" stroke-linejoin="round"/>
<path id="Vector_3" d="M99.9578 71.3984L76.1583 47.5989L23.7995 99.9578" stroke="black" stroke-width="1.86686" stroke-linecap="round" stroke-linejoin="round"/>
</g>
</svg>
